<svg width="305" height="23" viewBox="0 0 305 23" fill="none" xmlns="http://www.w3.org/2000/svg">
<path d="M5.9 20.94L1.07 20.88C0.83 20.88 0.68 20.78 0.62 20.58C0.54 20.34 0.5 20.11 0.5 19.89C0.5 19.71 0.57 19.58 0.71 19.5C0.85 19.42 1.01 19.35 1.19 19.29C1.39 19.23 1.58 19.16 1.76 19.08C1.96 19 2.1 18.84 2.18 18.6C2.6 15.9 2.91 12.17 3.11 7.41C3.15 6.15 3.18 5.23 3.2 4.65V3.42C3.2 3.18 3.18 2.94 3.14 2.7C1.92 2.7 1.22 2.57 1.04 2.31C0.82 1.99 0.71 1.59 0.71 1.11C2.87 0.909999 4.92 0.769999 6.86 0.689999C8.8 0.589999 9.95 0.539999 10.31 0.539999C11.71 0.539999 12.42 0.789999 12.44 1.29C12.44 1.53 12.23 1.76 11.81 1.98C11.39 2.18 11.18 2.37 11.18 2.55C11.18 2.71 11.31 3.04 11.57 3.54C11.85 4.02 12.17 4.55 12.53 5.13C13.35 6.41 14.01 7.37 14.51 8.01C14.55 7.97 14.63 7.95 14.75 7.95C15.35 7.95 15.83 7.77 16.19 7.41C16.25 7.53 16.28 7.71 16.28 7.95C16.28 8.17 16.24 8.34 16.16 8.46C16.1 8.58 16.01 8.7 15.89 8.82C15.61 9.14 15.47 9.44 15.47 9.72C15.47 9.98 15.49 10.11 15.53 10.11C15.61 10.35 15.83 10.83 16.19 11.55L17.09 13.38C17.33 13.88 17.57 14.35 17.81 14.79C18.05 15.23 18.25 15.62 18.41 15.96C18.59 16.3 18.71 16.52 18.77 16.62C18.95 15.82 19.04 14.6 19.04 12.96C19.04 11.3 19.01 9.88 18.95 8.7C18.91 7.5 18.85 6.42 18.77 5.46C18.61 3.26 18.46 2.16 18.32 2.16L15.5 2.4C15.5 1.82 15.6 1.42 15.8 1.2C16 0.98 16.18 0.859999 16.34 0.839998L17 0.779999C17.24 0.739999 17.49 0.699998 17.75 0.659999C18.03 0.659999 18.28 0.639999 18.5 0.6C19.3 0.479999 20.06 0.419999 20.78 0.419999C21.86 0.419999 22.43 0.509999 22.49 0.689999L22.55 1.38C22.35 1.4 22.09 1.46 21.77 1.56C21.47 1.64 21.21 1.7 20.99 1.74C20.93 1.78 20.79 1.87 20.57 2.01C20.35 2.13 20.21 2.21 20.15 2.25C20.13 2.41 20.11 2.68 20.09 3.06C20.09 3.42 20.07 3.82 20.03 4.26C19.95 5.26 19.91 5.91 19.91 6.21V6.69C19.97 11.57 20.05 14.74 20.15 16.2C20.25 17.66 20.3 18.5 20.3 18.72C20.22 20.06 18.12 20.82 14 21C13.6 21 13.3 20.93 13.1 20.79C12.92 20.63 12.83 20.37 12.83 20.01C12.83 19.63 12.85 19.4 12.89 19.32L9.2 13.02L7.28 13.17C7.28 13.09 7.28 13 7.28 12.9C7.3 12.78 7.35 12.62 7.43 12.42C7.53 12.2 7.68 12.02 7.88 11.88C8.08 11.74 8.18 11.5 8.18 11.16C8.18 10.8 8.05 10.32 7.79 9.72C7.51 9.12 7.19 8.48 6.83 7.8C6.07 6.42 5.31 5.3 4.55 4.44C4.45 4.6 4.4 4.85 4.4 5.19V5.73C4.38 6.69 4.31 8.12 4.19 10.02C3.95 13.7 3.83 15.95 3.83 16.77C3.83 18.35 3.89 19.21 4.01 19.35C4.09 19.45 4.25 19.5 4.49 19.5C4.73 19.5 4.98 19.51 5.24 19.53C5.52 19.55 5.76 19.61 5.96 19.71C6.18 19.81 6.29 20.04 6.29 20.4C6.29 20.76 6.16 20.94 5.9 20.94ZM33.9727 21.15H24.7327C24.5527 21.15 24.4127 21.08 24.3127 20.94C24.2327 20.78 24.1927 20.59 24.1927 20.37C24.1927 20.15 24.3127 19.95 24.5527 19.77C24.7927 19.75 25.0627 19.73 25.3627 19.71C25.6827 19.69 25.9827 19.67 26.2627 19.65C26.9027 19.61 27.2527 19.54 27.3127 19.44L30.4027 11.22L30.4327 11.01C30.4327 10.23 29.6227 9.78 28.0027 9.66C27.6427 9.62 27.3627 9.61 27.1627 9.63C26.3627 9.63 25.6627 9.91 25.0627 10.47C24.4827 11.01 24.1927 11.71 24.1927 12.57C24.1927 13.15 24.4727 13.44 25.0327 13.44C25.4327 13.44 25.6827 13.35 25.7827 13.17C25.9027 12.99 25.9627 12.75 25.9627 12.45V11.73C26.0227 11.55 26.0927 11.44 26.1727 11.4C26.2527 11.36 26.3727 11.34 26.5327 11.34C26.7127 11.34 26.8627 11.39 26.9827 11.49C27.1027 11.59 27.2027 11.71 27.2827 11.85C27.4427 12.15 27.5127 12.44 27.4927 12.72C27.4927 13 27.4227 13.26 27.2827 13.5C27.1627 13.74 27.0027 13.96 26.8027 14.16C26.3227 14.6 25.8727 14.82 25.4527 14.82C24.6727 14.82 24.0627 14.63 23.6227 14.25C23.2027 13.85 22.9927 13.32 22.9927 12.66C22.9927 11.98 23.0927 11.38 23.2927 10.86C23.4927 10.34 23.7727 9.89 24.1327 9.51C24.9127 8.69 25.8527 8.28 26.9527 8.28C27.7127 8.28 28.3927 8.35 28.9927 8.49C29.5927 8.61 30.2327 8.9 30.9127 9.36L30.9727 9.39C30.9927 9.39 31.0427 9.36 31.1227 9.3C31.2027 9.24 31.2427 9.19 31.2427 9.15L33.6727 2.82V2.73C33.6727 2.69 33.6427 2.64 33.5827 2.58C33.5427 2.5 33.5027 2.46 33.4627 2.46H29.3827C29.2427 2.46 29.1727 2.38 29.1727 2.22C29.1727 2.04 29.2127 1.81 29.2927 1.53C29.3927 1.25 29.5327 1.11 29.7127 1.11L42.7627 0.839998C42.9227 0.839998 43.0427 0.929999 43.1227 1.11C43.2027 1.27 43.2427 1.51 43.2427 1.83C43.2427 2.15 43.1427 2.31 42.9427 2.31H40.2127L42.4027 8.82C42.4427 9.04 42.4927 9.19 42.5527 9.27C42.6127 9.35 42.8427 9.39 43.2427 9.39C43.6427 9.39 44.1427 9.3 44.7427 9.12C45.3627 8.92 46.0127 8.82 46.6927 8.82C47.0327 8.82 47.2027 9.01 47.2027 9.39C47.2027 9.63 47.1127 9.82 46.9327 9.96C46.7527 10.08 46.5527 10.15 46.3327 10.17L43.6027 10.53C43.3627 10.53 43.2427 10.64 43.2427 10.86L46.3027 19.71L47.9227 20.13C48.1627 20.17 48.2827 20.31 48.2827 20.55C48.2827 20.79 48.2227 20.98 48.1027 21.12C47.9827 21.1 47.8627 21.09 47.7427 21.09H47.3827L41.7127 21.24C41.4927 21.24 41.3527 21.2 41.2927 21.12C41.2327 21.04 41.2027 20.86 41.2027 20.58C41.2027 20.3 41.3427 20.11 41.6227 20.01C41.9027 19.89 42.1527 19.8 42.3727 19.74C42.6127 19.68 42.8227 19.66 43.0027 19.68C43.2027 19.68 43.4127 19.69 43.6327 19.71C44.0727 19.75 44.4227 19.77 44.6827 19.77V19.41L42.0427 11.22H41.7127C41.6327 11.22 41.1927 11.58 40.3927 12.3L38.9227 13.62C38.7227 13.82 38.5827 14.01 38.5027 14.19C38.4427 14.37 38.2627 14.46 37.9627 14.46C37.6627 14.46 37.4227 14.37 37.2427 14.19C37.0827 14.01 36.9227 13.81 36.7627 13.59C36.6227 13.37 36.4627 13.17 36.2827 12.99C36.1227 12.81 35.9627 12.72 35.8027 12.72C35.6627 12.72 35.5927 12.73 35.5927 12.75C35.5927 12.75 35.5827 12.75 35.5627 12.75H35.5327L33.1627 19.29C33.1227 19.33 33.1027 19.43 33.1027 19.59C33.1027 19.73 33.1527 19.82 33.2527 19.86L33.6427 19.98C33.7827 20.04 33.9027 20.12 34.0027 20.22C34.1227 20.32 34.1827 20.5 34.1827 20.76C34.1827 21.02 34.1127 21.15 33.9727 21.15ZM36.2227 10.86L36.1927 11.04C36.1927 11.2 36.2127 11.3 36.2527 11.34C36.3127 11.38 36.4127 11.44 36.5527 11.52L36.9727 11.85L37.5127 12.21C37.6727 12.33 37.8727 12.46 38.1127 12.6L41.2027 10.05C41.4427 9.93 41.5627 9.86 41.5627 9.84C41.5627 9.8 41.5527 9.76 41.5327 9.72V9.66L39.2527 3.18L36.2227 10.86ZM66.4777 1.95L65.6377 1.89L60.5077 21.12C60.4277 21.4 60.3077 21.56 60.1477 21.6C59.9877 21.66 59.6677 21.69 59.1877 21.69C58.7277 21.69 58.1477 21.6 57.4477 21.42L55.3177 20.91C54.9977 20.69 54.8177 20.44 54.7777 20.16L52.2577 12.12H50.4277C50.2877 12.12 50.2177 11.98 50.2177 11.7C50.2177 11.4 50.3077 11.22 50.4877 11.16C50.6677 11.1 50.8577 11.07 51.0577 11.07C51.2777 11.05 51.4777 11.02 51.6577 10.98C51.8377 10.94 51.9277 10.82 51.9277 10.62L50.3977 2.46H47.4577C47.3177 2.46 47.2477 2.32 47.2477 2.04C47.2477 1.74 47.3477 1.53 47.5477 1.41C47.7677 1.27 48.0177 1.17 48.2977 1.11C48.5777 1.05 48.8577 1.02 49.1377 1.02C49.4377 0.999999 49.7077 0.979998 49.9477 0.959999C50.1877 0.939999 50.4277 0.919999 50.6677 0.899999C50.9077 0.859999 51.1577 0.829999 51.4177 0.809999C51.9377 0.769999 52.3977 0.75 52.7977 0.75H53.6377L54.5977 0.779999H54.8977C55.2177 0.919999 55.3977 1.14 55.4377 1.44C55.4977 1.72 55.5377 1.95 55.5577 2.13C55.5777 2.31 55.6577 2.48 55.7977 2.64L59.9677 18.33H60.1477L63.3877 5.22V5.04C63.4277 4.96 63.4777 4.67 63.5377 4.17C63.6177 3.67 63.6777 3.3 63.7177 3.06C63.7577 2.82 63.7777 2.68 63.7777 2.64V2.43C63.7777 2.13 63.7077 1.98 63.5677 1.98H61.3477C61.2077 1.98 61.1377 1.81 61.1377 1.47C61.1377 1.13 61.1877 0.919999 61.2877 0.839998C61.3877 0.739999 61.5177 0.669999 61.6777 0.629999C61.8377 0.589999 62.0877 0.559999 62.4277 0.539999L63.5077 0.48L64.5577 0.419999C64.8977 0.399999 65.1177 0.389999 65.2177 0.389999C65.3377 0.389999 65.5277 0.399999 65.7877 0.419999C66.0477 0.419999 66.3177 0.449999 66.5977 0.509999C67.3377 0.669999 67.7077 0.949999 67.7077 1.35C67.7077 1.75 67.2977 1.95 66.4777 1.95ZM83.1017 21.27L82.1717 21.3H81.3917C79.9917 21.3 77.1917 21.35 72.9917 21.45L72.0917 21.48H70.9217C70.3017 21.48 69.7317 21.45 69.2117 21.39C68.6917 21.35 68.4317 21.18 68.4317 20.88C68.4317 20.58 68.5717 20.38 68.8517 20.28L71.4017 20.34C71.4017 18.9 71.3417 17.52 71.2217 16.2C71.1217 14.88 71.0717 13.5 71.0717 12.06C70.9717 11.88 70.7917 11.75 70.5317 11.67C70.2917 11.59 70.1217 11.51 70.0217 11.43C69.9417 11.33 69.9017 11.17 69.9017 10.95C69.9017 10.73 69.9517 10.6 70.0517 10.56C70.1517 10.5 70.2617 10.47 70.3817 10.47C70.5217 10.45 70.6517 10.43 70.7717 10.41C70.9117 10.39 71.0117 10.31 71.0717 10.17V9.75L71.1017 8.4V7.95L71.1317 5.46C71.1317 4.84 71.0717 3.99 70.9517 2.91C70.8717 2.93 70.6917 2.94 70.4117 2.94H69.0017H68.2817C68.1417 2.92 68.0717 2.83 68.0717 2.67C68.0717 2.21 68.1317 1.89 68.2517 1.71C68.3917 1.51 68.6517 1.41 69.0317 1.41L72.6317 1.38C73.6717 1.38 74.7117 1.42 75.7517 1.5C76.7917 1.58 77.7617 1.62 78.6617 1.62C79.5817 1.62 80.4217 1.6 81.1817 1.56C81.9617 1.52 82.7117 1.36 83.4317 1.08C83.5917 0.999999 83.7217 0.909999 83.8217 0.809999C83.9417 0.709999 84.0717 0.659999 84.2117 0.659999C84.3517 0.659999 84.4817 0.719999 84.6017 0.839998C84.7217 0.939998 84.7817 1.07 84.7817 1.23L84.7517 1.35V1.41L84.2717 2.22C84.1517 2.42 84.0517 2.58 83.9717 2.7C83.8117 2.9 83.6317 3 83.4317 3C83.2517 3 82.6117 2.98 81.5117 2.94C81.1917 2.92 80.8317 2.91 80.4317 2.91C79.4317 2.91 78.1617 2.95 76.6217 3.03C76.4017 5.41 76.2917 7.78 76.2917 10.14C77.1717 10.14 77.8617 10.04 78.3617 9.84L79.4117 9.42C79.6317 9.32 79.8517 9.27 80.0717 9.27C80.2917 9.27 80.4617 9.34 80.5817 9.48C80.7017 9.62 80.7617 9.92 80.7617 10.38C80.7617 10.84 80.6517 11.2 80.4317 11.46C80.2317 11.7 79.8217 11.82 79.2017 11.82C78.6017 11.82 78.2517 11.63 78.1517 11.25L76.2917 11.37L76.2617 11.76C76.1617 13.08 76.1117 13.9 76.1117 14.22V15.06C76.1117 15.3 76.1117 15.61 76.1117 15.99C76.1317 16.35 76.1417 16.74 76.1417 17.16C76.1617 17.56 76.1817 17.94 76.2017 18.3C76.2217 18.66 76.2317 18.97 76.2317 19.23C76.2517 19.47 76.2717 19.6 76.2917 19.62L76.4717 19.98L77.9717 20.01L79.8917 20.04C82.4117 20.04 84.0517 19.71 84.8117 19.05C84.9517 18.93 85.0717 18.87 85.1717 18.87C85.8917 18.87 86.2517 19.21 86.2517 19.89L86.1917 20.31C86.1517 20.57 86.1117 20.7 86.0717 20.7L85.6817 21.09L85.3817 21.12C84.3817 21.22 83.6217 21.27 83.1017 21.27ZM102.115 21.27L101.185 21.3H100.405C99.0054 21.3 96.2054 21.35 92.0054 21.45L91.1054 21.48H89.9354C89.3154 21.48 88.7454 21.45 88.2254 21.39C87.7054 21.35 87.4454 21.18 87.4454 20.88C87.4454 20.58 87.5854 20.38 87.8654 20.28L90.4154 20.34C90.4154 18.9 90.3554 17.52 90.2354 16.2C90.1354 14.88 90.0854 13.5 90.0854 12.06C89.9854 11.88 89.8054 11.75 89.5454 11.67C89.3054 11.59 89.1354 11.51 89.0354 11.43C88.9554 11.33 88.9154 11.17 88.9154 10.95C88.9154 10.73 88.9654 10.6 89.0654 10.56C89.1654 10.5 89.2754 10.47 89.3954 10.47C89.5354 10.45 89.6654 10.43 89.7854 10.41C89.9254 10.39 90.0254 10.31 90.0854 10.17V9.75L90.1154 8.4V7.95L90.1454 5.46C90.1454 4.84 90.0854 3.99 89.9654 2.91C89.8854 2.93 89.7054 2.94 89.4254 2.94H88.0154H87.2954C87.1554 2.92 87.0854 2.83 87.0854 2.67C87.0854 2.21 87.1454 1.89 87.2654 1.71C87.4054 1.51 87.6654 1.41 88.0454 1.41L91.6454 1.38C92.6854 1.38 93.7254 1.42 94.7654 1.5C95.8054 1.58 96.7754 1.62 97.6754 1.62C98.5954 1.62 99.4354 1.6 100.195 1.56C100.975 1.52 101.725 1.36 102.445 1.08C102.605 0.999999 102.735 0.909999 102.835 0.809999C102.955 0.709999 103.085 0.659999 103.225 0.659999C103.365 0.659999 103.495 0.719999 103.615 0.839998C103.735 0.939998 103.795 1.07 103.795 1.23L103.765 1.35V1.41L103.285 2.22C103.165 2.42 103.065 2.58 102.985 2.7C102.825 2.9 102.645 3 102.445 3C102.265 3 101.625 2.98 100.525 2.94C100.205 2.92 99.8454 2.91 99.4454 2.91C98.4454 2.91 97.1754 2.95 95.6354 3.03C95.4154 5.41 95.3054 7.78 95.3054 10.14C96.1854 10.14 96.8754 10.04 97.3754 9.84L98.4254 9.42C98.6454 9.32 98.8654 9.27 99.0854 9.27C99.3054 9.27 99.4754 9.34 99.5954 9.48C99.7154 9.62 99.7754 9.92 99.7754 10.38C99.7754 10.84 99.6654 11.2 99.4454 11.46C99.2454 11.7 98.8354 11.82 98.2154 11.82C97.6154 11.82 97.2654 11.63 97.1654 11.25L95.3054 11.37L95.2754 11.76C95.1754 13.08 95.1254 13.9 95.1254 14.22V15.06C95.1254 15.3 95.1254 15.61 95.1254 15.99C95.1454 16.35 95.1554 16.74 95.1554 17.16C95.1754 17.56 95.1954 17.94 95.2154 18.3C95.2354 18.66 95.2454 18.97 95.2454 19.23C95.2654 19.47 95.2854 19.6 95.3054 19.62L95.4854 19.98L96.9854 20.01L98.9054 20.04C101.425 20.04 103.065 19.71 103.825 19.05C103.965 18.93 104.085 18.87 104.185 18.87C104.905 18.87 105.265 19.21 105.265 19.89L105.205 20.31C105.165 20.57 105.125 20.7 105.085 20.7L104.695 21.09L104.395 21.12C103.395 21.22 102.635 21.27 102.115 21.27ZM112.189 20.94L107.359 20.88C107.119 20.88 106.969 20.78 106.909 20.58C106.829 20.34 106.789 20.11 106.789 19.89C106.789 19.71 106.859 19.58 106.999 19.5C107.139 19.42 107.299 19.35 107.479 19.29C107.679 19.23 107.869 19.16 108.049 19.08C108.249 19 108.389 18.84 108.469 18.6C108.889 15.9 109.199 12.17 109.399 7.41C109.439 6.15 109.469 5.23 109.489 4.65V3.42C109.489 3.18 109.469 2.94 109.429 2.7C108.209 2.7 107.509 2.57 107.329 2.31C107.109 1.99 106.999 1.59 106.999 1.11C109.159 0.909999 111.209 0.769999 113.149 0.689999C115.089 0.589999 116.239 0.539999 116.599 0.539999C117.999 0.539999 118.709 0.789999 118.729 1.29C118.729 1.53 118.519 1.76 118.099 1.98C117.679 2.18 117.469 2.37 117.469 2.55C117.469 2.71 117.599 3.04 117.859 3.54C118.139 4.02 118.459 4.55 118.819 5.13C119.639 6.41 120.299 7.37 120.799 8.01C120.839 7.97 120.919 7.95 121.039 7.95C121.639 7.95 122.119 7.77 122.479 7.41C122.539 7.53 122.569 7.71 122.569 7.95C122.569 8.17 122.529 8.34 122.449 8.46C122.389 8.58 122.299 8.7 122.179 8.82C121.899 9.14 121.759 9.44 121.759 9.72C121.759 9.98 121.779 10.11 121.819 10.11C121.899 10.35 122.119 10.83 122.479 11.55L123.379 13.38C123.619 13.88 123.859 14.35 124.099 14.79C124.339 15.23 124.539 15.62 124.699 15.96C124.879 16.3 124.999 16.52 125.059 16.62C125.239 15.82 125.329 14.6 125.329 12.96C125.329 11.3 125.299 9.88 125.239 8.7C125.199 7.5 125.139 6.42 125.059 5.46C124.899 3.26 124.749 2.16 124.609 2.16L121.789 2.4C121.789 1.82 121.889 1.42 122.089 1.2C122.289 0.98 122.469 0.859999 122.629 0.839998L123.289 0.779999C123.529 0.739999 123.779 0.699998 124.039 0.659999C124.319 0.659999 124.569 0.639999 124.789 0.6C125.589 0.479999 126.349 0.419999 127.069 0.419999C128.149 0.419999 128.719 0.509999 128.779 0.689999L128.839 1.38C128.639 1.4 128.379 1.46 128.059 1.56C127.759 1.64 127.499 1.7 127.279 1.74C127.219 1.78 127.079 1.87 126.859 2.01C126.639 2.13 126.499 2.21 126.439 2.25C126.419 2.41 126.399 2.68 126.379 3.06C126.379 3.42 126.359 3.82 126.319 4.26C126.239 5.26 126.199 5.91 126.199 6.21V6.69C126.259 11.57 126.339 14.74 126.439 16.2C126.539 17.66 126.589 18.5 126.589 18.72C126.509 20.06 124.409 20.82 120.289 21C119.889 21 119.589 20.93 119.389 20.79C119.209 20.63 119.119 20.37 119.119 20.01C119.119 19.63 119.139 19.4 119.179 19.32L115.489 13.02L113.569 13.17C113.569 13.09 113.569 13 113.569 12.9C113.589 12.78 113.639 12.62 113.719 12.42C113.819 12.2 113.969 12.02 114.169 11.88C114.369 11.74 114.469 11.5 114.469 11.16C114.469 10.8 114.339 10.32 114.079 9.72C113.799 9.12 113.479 8.48 113.119 7.8C112.359 6.42 111.599 5.3 110.839 4.44C110.739 4.6 110.689 4.85 110.689 5.19V5.73C110.669 6.69 110.599 8.12 110.479 10.02C110.239 13.7 110.119 15.95 110.119 16.77C110.119 18.35 110.179 19.21 110.299 19.35C110.379 19.45 110.539 19.5 110.779 19.5C111.019 19.5 111.269 19.51 111.529 19.53C111.809 19.55 112.049 19.61 112.249 19.71C112.469 19.81 112.579 20.04 112.579 20.4C112.579 20.76 112.449 20.94 112.189 20.94ZM139.328 22.62C138.868 22.62 138.638 22.33 138.638 21.75C138.638 21.13 139.118 20.64 140.078 20.28C140.498 20.12 141.208 19.96 142.208 19.8L142.388 19.62V12.15C142.388 11.95 142.318 11.82 142.178 11.76C142.038 11.7 141.888 11.65 141.728 11.61C141.568 11.55 141.418 11.48 141.278 11.4C141.138 11.3 141.068 11.13 141.068 10.89C141.068 10.29 141.448 9.97 142.208 9.93C142.208 8.05 142.018 5.74 141.638 3C141.218 3 140.848 3.19 140.528 3.57C140.208 3.93 139.908 4.34 139.628 4.8C139.368 5.24 139.108 5.65 138.848 6.03C138.608 6.39 138.368 6.57 138.128 6.57C137.888 6.57 137.688 6.48 137.528 6.3C137.388 6.12 137.318 5.97 137.318 5.85V5.58C137.318 5.5 137.328 5.44 137.348 5.4C137.928 3.92 138.958 2.74 140.438 1.86C141.838 1.02 143.338 0.6 144.938 0.6C144.998 0.579999 145.068 0.569998 145.148 0.569998C146.648 0.569998 147.948 0.679999 149.048 0.899999C150.208 1.14 151.188 1.44 151.988 1.8C152.808 2.16 153.478 2.56 153.998 3C154.518 3.44 154.918 3.88 155.198 4.32C155.718 5.08 155.978 5.79 155.978 6.45C155.978 6.59 155.968 6.68 155.948 6.72C156.008 6.78 156.038 7.12 156.038 7.74C156.038 8.36 155.898 8.91 155.618 9.39C155.358 9.87 154.918 10.37 154.298 10.89C155.398 11.31 156.228 11.89 156.788 12.63C157.368 13.35 157.658 14.27 157.658 15.39C157.658 16.51 157.488 17.44 157.148 18.18C156.808 18.9 156.378 19.51 155.858 20.01C155.358 20.49 154.798 20.86 154.178 21.12C153.558 21.4 152.968 21.61 152.408 21.75C151.608 21.95 150.798 22.05 149.978 22.05C149.158 22.05 148.318 21.98 147.458 21.84C146.598 21.7 145.718 21.63 144.818 21.63H143.498C143.418 21.79 143.338 21.9 143.258 21.96C143.198 22.02 143.068 22.05 142.868 22.05C142.688 22.05 142.528 21.98 142.388 21.84C142.268 21.7 142.078 21.63 141.818 21.63C141.578 21.63 141.358 21.68 141.158 21.78L140.528 22.14C140.028 22.46 139.628 22.62 139.328 22.62ZM148.868 20.31C148.868 20.49 149.138 20.58 149.678 20.58C150.238 20.58 150.908 20.51 151.688 20.37C152.468 20.21 153.198 19.95 153.878 19.59C155.518 18.73 156.338 17.56 156.338 16.08C156.338 14.6 156.138 13.61 155.738 13.11C155.498 12.81 155.178 12.57 154.778 12.39C154.378 12.21 153.838 12.01 153.158 11.79H152.588C152.448 11.81 152.188 11.85 151.808 11.91C151.448 11.97 151.068 12.03 150.668 12.09L149.468 12.24C149.108 12.3 148.858 12.34 148.718 12.36C148.598 12.38 148.538 12.47 148.538 12.63V12.75C148.538 14.71 148.658 17.18 148.898 20.16C148.878 20.18 148.868 20.2 148.868 20.22V20.31ZM148.568 10.74L149.828 10.68C150.008 10.68 150.258 10.66 150.578 10.62C151.258 10.56 151.818 10.48 152.258 10.38L152.588 10.32C153.308 9.88 153.808 9.35 154.088 8.73C154.388 8.11 154.538 7.58 154.538 7.14C154.538 5.52 153.718 4.25 152.078 3.33C151.438 2.97 150.798 2.73 150.158 2.61C149.538 2.47 149.138 2.4 148.958 2.4C148.798 2.4 148.718 2.41 148.718 2.43H148.118C148.118 3.25 148.168 4.31 148.268 5.61C148.468 8.21 148.568 9.92 148.568 10.74ZM163.001 21.21L160.991 21.24C160.491 21.24 160.021 21.22 159.581 21.18C159.401 21.1 159.281 21.03 159.221 20.97C159.181 20.89 159.161 20.78 159.161 20.64L159.221 20.22C159.281 19.94 159.331 19.8 159.371 19.8H163.151L163.331 15.57C163.331 13.47 163.091 12.42 162.611 12.42C162.231 12.42 161.871 12.52 161.531 12.72C161.211 12.92 160.911 13.02 160.631 13.02C160.151 13.02 159.911 12.81 159.911 12.39C159.911 12.27 159.911 12.17 159.911 12.09C159.931 12.01 160.001 11.94 160.121 11.88L162.731 10.77V9.66L161.621 3.69H159.371C159.131 3.13 159.011 2.8 159.011 2.7C159.011 2.44 159.151 2.29 159.431 2.25C159.711 2.21 160.031 2.19 160.391 2.19L161.231 2.22C161.311 2 161.401 1.85 161.501 1.77C161.601 1.67 161.761 1.62 161.981 1.62C162.201 1.62 162.381 1.67 162.521 1.77C162.681 1.85 163.111 1.89 163.811 1.89C164.531 1.89 165.491 1.79 166.691 1.59C167.891 1.37 169.101 1.26 170.321 1.26C170.981 1.26 171.311 1.49 171.311 1.95C171.311 2.29 171.231 2.51 171.071 2.61C170.911 2.69 170.721 2.73 170.501 2.73L169.751 2.7C169.471 2.7 169.221 2.77 169.001 2.91C168.781 3.03 168.671 3.3 168.671 3.72C168.671 4.12 168.681 4.43 168.701 4.65C168.721 4.87 168.751 5.1 168.791 5.34C168.851 5.78 168.881 6.3 168.881 6.9C168.881 7.04 168.881 7.19 168.881 7.35L168.851 9.12L169.061 9.48H172.211L179.111 10.89V3.69C179.111 3.61 179.071 3.48 178.991 3.3C178.831 2.96 178.681 2.79 178.541 2.79H175.571C175.431 2.79 175.361 2.64 175.361 2.34C175.361 1.64 176.931 1.29 180.071 1.29C180.591 1.29 181.031 1.28 181.391 1.26C181.631 1.24 181.841 1.23 182.021 1.23C182.121 1.25 182.211 1.26 182.291 1.26C182.771 1.28 183.011 1.45 183.011 1.77C183.011 2.15 182.831 2.39 182.471 2.49C182.111 2.59 181.811 2.64 181.571 2.64H180.971C180.811 2.64 180.691 2.63 180.611 2.61L180.401 2.79L180.221 10.5C180.421 10.5 180.551 10.52 180.611 10.56C180.691 10.6 180.761 10.62 180.821 10.62C180.881 10.62 181.261 10.25 181.961 9.51C183.261 8.11 183.981 7.41 184.121 7.41C184.261 7.41 184.391 7.47 184.511 7.59C184.631 7.71 184.691 7.92 184.691 8.22C184.691 8.5 184.521 8.86 184.181 9.3C183.841 9.74 183.431 10.16 182.951 10.56C182.071 11.28 181.161 11.85 180.221 12.27C180.221 12.93 180.231 13.56 180.251 14.16V15.9C180.271 17.26 180.321 18.53 180.401 19.71C180.561 19.79 180.761 19.86 181.001 19.92C181.261 19.96 181.511 20.02 181.751 20.1C182.351 20.28 182.651 20.55 182.651 20.91C182.651 21.37 182.311 21.6 181.631 21.6C180.951 21.6 180.241 21.52 179.501 21.36C178.761 21.22 178.011 21.15 177.251 21.15L176.681 21.18C176.541 21.16 176.471 20.97 176.471 20.61C176.471 19.97 177.011 19.65 178.091 19.65C178.431 19.65 178.701 19.67 178.901 19.71L179.111 18.78V12.45L172.211 10.95L170.741 10.92C169.861 10.92 169.301 11.12 169.061 11.52L168.851 17.58V18.21C168.851 19.33 168.921 19.96 169.061 20.1H169.991C171.371 20.1 172.061 20.36 172.061 20.88C172.061 21.2 171.671 21.49 170.891 21.75C170.631 21.75 170.411 21.71 170.231 21.63C170.071 21.57 169.881 21.54 169.661 21.54C169.441 21.54 169.271 21.56 169.151 21.6C169.031 21.64 168.921 21.69 168.821 21.75C168.581 21.89 168.381 21.96 168.221 21.96H168.161C168.141 21.96 168.121 21.95 168.101 21.93C167.141 21.45 165.441 21.21 163.001 21.21ZM195.897 21.15H186.657C186.477 21.15 186.337 21.08 186.237 20.94C186.157 20.78 186.117 20.59 186.117 20.37C186.117 20.15 186.237 19.95 186.477 19.77C186.717 19.75 186.987 19.73 187.287 19.71C187.607 19.69 187.907 19.67 188.187 19.65C188.827 19.61 189.177 19.54 189.237 19.44L192.327 11.22L192.357 11.01C192.357 10.23 191.547 9.78 189.927 9.66C189.567 9.62 189.287 9.61 189.087 9.63C188.287 9.63 187.587 9.91 186.987 10.47C186.407 11.01 186.117 11.71 186.117 12.57C186.117 13.15 186.397 13.44 186.957 13.44C187.357 13.44 187.607 13.35 187.707 13.17C187.827 12.99 187.887 12.75 187.887 12.45V11.73C187.947 11.55 188.017 11.44 188.097 11.4C188.177 11.36 188.297 11.34 188.457 11.34C188.637 11.34 188.787 11.39 188.907 11.49C189.027 11.59 189.127 11.71 189.207 11.85C189.367 12.15 189.437 12.44 189.417 12.72C189.417 13 189.347 13.26 189.207 13.5C189.087 13.74 188.927 13.96 188.727 14.16C188.247 14.6 187.797 14.82 187.377 14.82C186.597 14.82 185.987 14.63 185.547 14.25C185.127 13.85 184.917 13.32 184.917 12.66C184.917 11.98 185.017 11.38 185.217 10.86C185.417 10.34 185.697 9.89 186.057 9.51C186.837 8.69 187.777 8.28 188.877 8.28C189.637 8.28 190.317 8.35 190.917 8.49C191.517 8.61 192.157 8.9 192.837 9.36L192.897 9.39C192.917 9.39 192.967 9.36 193.047 9.3C193.127 9.24 193.167 9.19 193.167 9.15L195.597 2.82V2.73C195.597 2.69 195.567 2.64 195.507 2.58C195.467 2.5 195.427 2.46 195.387 2.46H191.307C191.167 2.46 191.097 2.38 191.097 2.22C191.097 2.04 191.137 1.81 191.217 1.53C191.317 1.25 191.457 1.11 191.637 1.11L204.687 0.839998C204.847 0.839998 204.967 0.929999 205.047 1.11C205.127 1.27 205.167 1.51 205.167 1.83C205.167 2.15 205.067 2.31 204.867 2.31H202.137L204.327 8.82C204.367 9.04 204.417 9.19 204.477 9.27C204.537 9.35 204.767 9.39 205.167 9.39C205.567 9.39 206.067 9.3 206.667 9.12C207.287 8.92 207.937 8.82 208.617 8.82C208.957 8.82 209.127 9.01 209.127 9.39C209.127 9.63 209.037 9.82 208.857 9.96C208.677 10.08 208.477 10.15 208.257 10.17L205.527 10.53C205.287 10.53 205.167 10.64 205.167 10.86L208.227 19.71L209.847 20.13C210.087 20.17 210.207 20.31 210.207 20.55C210.207 20.79 210.147 20.98 210.027 21.12C209.907 21.1 209.787 21.09 209.667 21.09H209.307L203.637 21.24C203.417 21.24 203.277 21.2 203.217 21.12C203.157 21.04 203.127 20.86 203.127 20.58C203.127 20.3 203.267 20.11 203.547 20.01C203.827 19.89 204.077 19.8 204.297 19.74C204.537 19.68 204.747 19.66 204.927 19.68C205.127 19.68 205.337 19.69 205.557 19.71C205.997 19.75 206.347 19.77 206.607 19.77V19.41L203.967 11.22H203.637C203.557 11.22 203.117 11.58 202.317 12.3L200.847 13.62C200.647 13.82 200.507 14.01 200.427 14.19C200.367 14.37 200.187 14.46 199.887 14.46C199.587 14.46 199.347 14.37 199.167 14.19C199.007 14.01 198.847 13.81 198.687 13.59C198.547 13.37 198.387 13.17 198.207 12.99C198.047 12.81 197.887 12.72 197.727 12.72C197.587 12.72 197.517 12.73 197.517 12.75C197.517 12.75 197.507 12.75 197.487 12.75H197.457L195.087 19.29C195.047 19.33 195.027 19.43 195.027 19.59C195.027 19.73 195.077 19.82 195.177 19.86L195.567 19.98C195.707 20.04 195.827 20.12 195.927 20.22C196.047 20.32 196.107 20.5 196.107 20.76C196.107 21.02 196.037 21.15 195.897 21.15ZM198.147 10.86L198.117 11.04C198.117 11.2 198.137 11.3 198.177 11.34C198.237 11.38 198.337 11.44 198.477 11.52L198.897 11.85L199.437 12.21C199.597 12.33 199.797 12.46 200.037 12.6L203.127 10.05C203.367 9.93 203.487 9.86 203.487 9.84C203.487 9.8 203.477 9.76 203.457 9.72V9.66L201.177 3.18L198.147 10.86ZM228.797 18.99L228.827 18.42C228.827 18.32 228.827 18.22 228.827 18.12C228.827 17.36 228.757 16.79 228.617 16.41C228.217 15.27 227.437 14.48 226.277 14.04C225.997 13.92 225.717 13.87 225.437 13.89C224.897 14.01 224.307 14.16 223.667 14.34L222.737 14.61L222.557 14.79L222.917 20.37H223.847C224.207 20.37 224.547 20.39 224.867 20.43C225.187 20.45 225.347 20.6 225.347 20.88C225.347 21.44 224.687 21.72 223.367 21.72C222.067 21.72 220.737 21.64 219.377 21.48C218.037 21.34 216.677 21.27 215.297 21.27L214.367 21.3C214.107 21.18 213.977 20.99 213.977 20.73C213.977 20.45 214.087 20.27 214.307 20.19C214.527 20.09 214.787 20.03 215.087 20.01C215.407 19.99 215.717 19.98 216.017 19.98C216.337 19.98 216.587 19.93 216.767 19.83L216.797 18.69C216.797 13.39 216.547 8.37 216.047 3.63C216.027 3.59 215.997 3.5 215.957 3.36C215.917 3.22 215.887 3.13 215.867 3.09L215.777 3.06C215.377 3.06 214.697 3.68 213.737 4.92C213.497 5.24 213.257 5.58 213.017 5.94C212.697 6.42 212.537 7.08 212.537 7.92C212.517 8.22 212.507 8.48 212.507 8.7C212.507 9.18 212.517 9.55 212.537 9.81C212.577 10.23 212.657 10.6 212.777 10.92C212.977 11.52 213.457 12.16 214.217 12.84C214.217 13.1 213.957 13.32 213.437 13.5C212.677 13.5 212.077 12.85 211.637 11.55C211.317 10.63 211.157 9.63 211.157 8.55C211.157 7.39 211.437 6.22 211.997 5.04C212.537 3.86 213.387 2.89 214.547 2.13C215.827 1.49 217.387 1.17 219.227 1.17C222.087 1.17 224.377 1.6 226.097 2.46C227.137 2.98 228.007 3.73 228.707 4.71C229.427 5.67 229.787 6.96 229.787 8.58C229.787 8.64 229.777 8.74 229.757 8.88L229.697 9.24C229.637 9.64 229.607 9.82 229.607 9.78L227.567 12.93V13.14C229.447 13.82 230.387 15.82 230.387 19.14L230.357 20.19C230.737 20.57 230.957 20.76 231.017 20.76C231.157 20.64 231.287 20.5 231.407 20.34C231.547 20.18 231.697 20.04 231.857 19.92C232.357 19.58 232.647 19.41 232.727 19.41C232.947 19.41 233.097 19.42 233.177 19.44C233.277 19.44 233.327 19.55 233.327 19.77C233.327 19.97 233.277 20.22 233.177 20.52C233.077 20.82 232.937 21.1 232.757 21.36C232.337 21.96 231.837 22.26 231.257 22.26C230.917 22.26 230.637 22.2 230.417 22.08C230.217 21.96 229.937 21.76 229.577 21.48C229.237 21.2 229.017 20.85 228.917 20.43C228.837 19.99 228.797 19.51 228.797 18.99ZM221.777 2.52L221.807 3.09C221.927 4.65 222.017 6.23 222.077 7.83C222.137 9.43 222.297 11.01 222.557 12.57C222.617 12.71 222.737 12.78 222.917 12.78C225.837 12.78 227.697 11.47 228.497 8.85C228.497 7.13 227.997 5.75 226.997 4.71C226.637 4.35 226.277 4.09 225.917 3.93C225.557 3.77 225.197 3.62 224.837 3.48C224.477 3.32 224.117 3.17 223.757 3.03C222.917 2.69 222.457 2.52 222.377 2.52H221.777ZM243.856 21.15H234.616C234.436 21.15 234.296 21.08 234.196 20.94C234.116 20.78 234.076 20.59 234.076 20.37C234.076 20.15 234.196 19.95 234.436 19.77C234.676 19.75 234.946 19.73 235.246 19.71C235.566 19.69 235.866 19.67 236.146 19.65C236.786 19.61 237.136 19.54 237.196 19.44L240.286 11.22L240.316 11.01C240.316 10.23 239.506 9.78 237.886 9.66C237.526 9.62 237.246 9.61 237.046 9.63C236.246 9.63 235.546 9.91 234.946 10.47C234.366 11.01 234.076 11.71 234.076 12.57C234.076 13.15 234.356 13.44 234.916 13.44C235.316 13.44 235.566 13.35 235.666 13.17C235.786 12.99 235.846 12.75 235.846 12.45V11.73C235.906 11.55 235.976 11.44 236.056 11.4C236.136 11.36 236.256 11.34 236.416 11.34C236.596 11.34 236.746 11.39 236.866 11.49C236.986 11.59 237.086 11.71 237.166 11.85C237.326 12.15 237.396 12.44 237.376 12.72C237.376 13 237.306 13.26 237.166 13.5C237.046 13.74 236.886 13.96 236.686 14.16C236.206 14.6 235.756 14.82 235.336 14.82C234.556 14.82 233.946 14.63 233.506 14.25C233.086 13.85 232.876 13.32 232.876 12.66C232.876 11.98 232.976 11.38 233.176 10.86C233.376 10.34 233.656 9.89 234.016 9.51C234.796 8.69 235.736 8.28 236.836 8.28C237.596 8.28 238.276 8.35 238.876 8.49C239.476 8.61 240.116 8.9 240.796 9.36L240.856 9.39C240.876 9.39 240.926 9.36 241.006 9.3C241.086 9.24 241.126 9.19 241.126 9.15L243.556 2.82V2.73C243.556 2.69 243.526 2.64 243.466 2.58C243.426 2.5 243.386 2.46 243.346 2.46H239.266C239.126 2.46 239.056 2.38 239.056 2.22C239.056 2.04 239.096 1.81 239.176 1.53C239.276 1.25 239.416 1.11 239.596 1.11L252.646 0.839998C252.806 0.839998 252.926 0.929999 253.006 1.11C253.086 1.27 253.126 1.51 253.126 1.83C253.126 2.15 253.026 2.31 252.826 2.31H250.096L252.286 8.82C252.326 9.04 252.376 9.19 252.436 9.27C252.496 9.35 252.726 9.39 253.126 9.39C253.526 9.39 254.026 9.3 254.626 9.12C255.246 8.92 255.896 8.82 256.576 8.82C256.916 8.82 257.086 9.01 257.086 9.39C257.086 9.63 256.996 9.82 256.816 9.96C256.636 10.08 256.436 10.15 256.216 10.17L253.486 10.53C253.246 10.53 253.126 10.64 253.126 10.86L256.186 19.71L257.806 20.13C258.046 20.17 258.166 20.31 258.166 20.55C258.166 20.79 258.106 20.98 257.986 21.12C257.866 21.1 257.746 21.09 257.626 21.09H257.266L251.596 21.24C251.376 21.24 251.236 21.2 251.176 21.12C251.116 21.04 251.086 20.86 251.086 20.58C251.086 20.3 251.226 20.11 251.506 20.01C251.786 19.89 252.036 19.8 252.256 19.74C252.496 19.68 252.706 19.66 252.886 19.68C253.086 19.68 253.296 19.69 253.516 19.71C253.956 19.75 254.306 19.77 254.566 19.77V19.41L251.926 11.22H251.596C251.516 11.22 251.076 11.58 250.276 12.3L248.806 13.62C248.606 13.82 248.466 14.01 248.386 14.19C248.326 14.37 248.146 14.46 247.846 14.46C247.546 14.46 247.306 14.37 247.126 14.19C246.966 14.01 246.806 13.81 246.646 13.59C246.506 13.37 246.346 13.17 246.166 12.99C246.006 12.81 245.846 12.72 245.686 12.72C245.546 12.72 245.476 12.73 245.476 12.75C245.476 12.75 245.466 12.75 245.446 12.75H245.416L243.046 19.29C243.006 19.33 242.986 19.43 242.986 19.59C242.986 19.73 243.036 19.82 243.136 19.86L243.526 19.98C243.666 20.04 243.786 20.12 243.886 20.22C244.006 20.32 244.066 20.5 244.066 20.76C244.066 21.02 243.996 21.15 243.856 21.15ZM246.106 10.86L246.076 11.04C246.076 11.2 246.096 11.3 246.136 11.34C246.196 11.38 246.296 11.44 246.436 11.52L246.856 11.85L247.396 12.21C247.556 12.33 247.756 12.46 247.996 12.6L251.086 10.05C251.326 9.93 251.446 9.86 251.446 9.84C251.446 9.8 251.436 9.76 251.416 9.72V9.66L249.136 3.18L246.106 10.86ZM262.111 21.54C261.851 21.54 261.721 21.32 261.721 20.88C261.721 20.76 261.741 20.65 261.781 20.55C261.821 20.45 261.931 20.4 262.111 20.4H264.361C264.401 19.9 264.461 19.29 264.541 18.57C264.621 17.83 264.701 17.02 264.781 16.14C264.981 13.94 265.081 11.95 265.081 10.17V2.88L263.251 3.15L258.301 6.33C258.281 6.33 258.261 6.38 258.241 6.48C258.241 6.56 258.221 6.6 258.181 6.6C257.961 6.6 257.771 6.5 257.611 6.3C257.451 6.1 257.371 5.89 257.371 5.67L259.381 0.389999L262.771 1.44C263.331 1.62 264.161 1.71 265.261 1.71L267.571 1.65L270.481 1.68C271.941 1.68 273.141 1.46 274.081 1.02C274.261 0.94 274.411 0.859999 274.531 0.779999C274.631 0.679999 274.741 0.589999 274.861 0.509999C275.081 0.349999 275.331 0.269999 275.611 0.269999C275.891 0.269999 276.071 0.329998 276.151 0.449998L278.191 4.62C278.191 4.72 278.091 4.87 277.891 5.07C277.711 5.25 277.621 5.33 277.621 5.31L274.141 3.84L271.651 2.88C271.411 2.88 271.211 2.94 271.051 3.06C270.911 3.18 270.801 3.42 270.721 3.78C270.561 4.38 270.481 5.76 270.481 7.92L270.301 15.96C270.301 18.48 270.421 19.9 270.661 20.22C270.741 20.34 270.841 20.39 270.961 20.37L272.581 20.22C272.841 20.22 273.061 20.24 273.241 20.28C273.401 20.28 273.481 20.38 273.481 20.58C273.481 21.1 273.351 21.38 273.091 21.42L271.231 21.54H262.111ZM282.942 21.21L280.932 21.24C280.432 21.24 279.962 21.22 279.522 21.18C279.342 21.1 279.222 21.03 279.162 20.97C279.122 20.89 279.102 20.78 279.102 20.64L279.162 20.22C279.222 19.94 279.272 19.8 279.312 19.8H283.092L283.272 15.57C283.272 13.47 283.032 12.42 282.552 12.42C282.172 12.42 281.812 12.52 281.472 12.72C281.152 12.92 280.852 13.02 280.572 13.02C280.092 13.02 279.852 12.81 279.852 12.39C279.852 12.27 279.852 12.17 279.852 12.09C279.872 12.01 279.942 11.94 280.062 11.88L282.672 10.77V9.66L281.562 3.69H279.312C279.072 3.13 278.952 2.8 278.952 2.7C278.952 2.44 279.092 2.29 279.372 2.25C279.652 2.21 279.972 2.19 280.332 2.19L281.172 2.22C281.252 2 281.342 1.85 281.442 1.77C281.542 1.67 281.702 1.62 281.922 1.62C282.142 1.62 282.322 1.67 282.462 1.77C282.622 1.85 283.052 1.89 283.752 1.89C284.472 1.89 285.432 1.79 286.632 1.59C287.832 1.37 289.042 1.26 290.262 1.26C290.922 1.26 291.252 1.49 291.252 1.95C291.252 2.29 291.172 2.51 291.012 2.61C290.852 2.69 290.662 2.73 290.442 2.73L289.692 2.7C289.412 2.7 289.162 2.77 288.942 2.91C288.722 3.03 288.612 3.3 288.612 3.72C288.612 4.12 288.622 4.43 288.642 4.65C288.662 4.87 288.692 5.1 288.732 5.34C288.792 5.78 288.822 6.3 288.822 6.9C288.822 7.04 288.822 7.19 288.822 7.35L288.792 9.12L289.002 9.48H292.152L299.052 10.89V3.69C299.052 3.61 299.012 3.48 298.932 3.3C298.772 2.96 298.622 2.79 298.482 2.79H295.512C295.372 2.79 295.302 2.64 295.302 2.34C295.302 1.64 296.872 1.29 300.012 1.29C300.532 1.29 300.972 1.28 301.332 1.26C301.572 1.24 301.782 1.23 301.962 1.23C302.062 1.25 302.152 1.26 302.232 1.26C302.712 1.28 302.952 1.45 302.952 1.77C302.952 2.15 302.772 2.39 302.412 2.49C302.052 2.59 301.752 2.64 301.512 2.64H300.912C300.752 2.64 300.632 2.63 300.552 2.61L300.342 2.79L300.162 10.5C300.362 10.5 300.492 10.52 300.552 10.56C300.632 10.6 300.702 10.62 300.762 10.62C300.822 10.62 301.202 10.25 301.902 9.51C303.202 8.11 303.922 7.41 304.062 7.41C304.202 7.41 304.332 7.47 304.452 7.59C304.572 7.71 304.632 7.92 304.632 8.22C304.632 8.5 304.462 8.86 304.122 9.3C303.782 9.74 303.372 10.16 302.892 10.56C302.012 11.28 301.102 11.85 300.162 12.27C300.162 12.93 300.172 13.56 300.192 14.16V15.9C300.212 17.26 300.262 18.53 300.342 19.71C300.502 19.79 300.702 19.86 300.942 19.92C301.202 19.96 301.452 20.02 301.692 20.1C302.292 20.28 302.592 20.55 302.592 20.91C302.592 21.37 302.252 21.6 301.572 21.6C300.892 21.6 300.182 21.52 299.442 21.36C298.702 21.22 297.952 21.15 297.192 21.15L296.622 21.18C296.482 21.16 296.412 20.97 296.412 20.61C296.412 19.97 296.952 19.65 298.032 19.65C298.372 19.65 298.642 19.67 298.842 19.71L299.052 18.78V12.45L292.152 10.95L290.682 10.92C289.802 10.92 289.242 11.12 289.002 11.52L288.792 17.58V18.21C288.792 19.33 288.862 19.96 289.002 20.1H289.932C291.312 20.1 292.002 20.36 292.002 20.88C292.002 21.2 291.612 21.49 290.832 21.75C290.572 21.75 290.352 21.71 290.172 21.63C290.012 21.57 289.822 21.54 289.602 21.54C289.382 21.54 289.212 21.56 289.092 21.6C288.972 21.64 288.862 21.69 288.762 21.75C288.522 21.89 288.322 21.96 288.162 21.96H288.102C288.082 21.96 288.062 21.95 288.042 21.93C287.082 21.45 285.382 21.21 282.942 21.21Z" fill="white"/>
</svg>